<?xml version="1.0" encoding="UTF-8" standalone="no"?>
<svg width="24px" height="24px" viewBox="0 0 24 24" version="1.1" xmlns="http://www.w3.org/2000/svg" xmlns:xlink="http://www.w3.org/1999/xlink">
    <!-- Generator: Sketch 39.1 (31720) - http://www.bohemiancoding.com/sketch -->
    <title>Google-color</title>
    <desc>Created with Sketch.</desc>
    <defs></defs>
    <g id="Academy" stroke="none" stroke-width="1" fill="none" fill-rule="evenodd">
        <g id="00SignUp_Academy" transform="translate(-523.000000, -441.000000)">
            <g id="SignupCard" transform="translate(405.000000, 55.000000)">
                <g id="google_login_btn" transform="translate(57.000000, 373.000000)">
                    <g id="Google" transform="translate(61.000000, 13.000000)">
                        <path d="M5.64470811,12.0018557 C5.64470811,11.2391357 5.77228575,10.5079066 5.9999876,9.82204568 L2.01439769,6.79998779 C1.23762753,8.36599235 0.799987793,10.1305496 0.799987793,12.0018557 C0.799987793,13.8715605 1.23708923,15.6350503 2.01278278,17.1999874 L5.99621949,14.1720583 C5.77067084,13.4893999 5.64470811,12.7608395 5.64470811,12.0018557" id="Fill-1" fill="#FBBC05"></path>
                        <path d="M12.3782268,5.02344273 C14.0077094,5.02344273 15.4795001,5.63741907 16.635907,6.64210761 L20,3.06988167 C17.9500058,1.17213664 15.3218082,0 12.3782268,0 C7.80831679,0 3.88073823,2.77908015 2,6.83969636 L5.89183507,10 C6.7885761,7.10538067 9.34476113,5.02344273 12.3782268,5.02344273" id="Fill-2" fill="#EB4335"></path>
                        <path d="M12.428781,18.9765573 C9.38053876,18.9765573 6.81190211,16.8946193 5.91079289,14 L2,17.1597455 C3.88989964,21.2209198 7.83661013,24 12.428781,24 C15.2631023,24 17.969071,22.9350301 20,20.9396071 L16.2878103,17.9026568 C15.2403897,18.6009154 13.9214743,18.9765573 12.428781,18.9765573" id="Fill-3" fill="#34A853"></path>
                        <path d="M23.4999752,12.144563 C23.4999752,11.4475801 23.3914038,10.696983 23.2285466,10 L12.0999756,10 L12.0999756,14.5571965 L18.5056897,14.5571965 C18.185404,16.1109324 17.3135754,17.305454 16.0660897,18.0828581 L19.8812896,21 C22.0738895,18.9873276 23.4999752,15.9892284 23.4999752,12.144563" id="Fill-4" fill="#4285F4"></path>
                    </g>
                </g>
            </g>
        </g>
    </g>
</svg>